<svg xmlns="http://www.w3.org/2000/svg" width="18" height="18" viewBox="0 0 18 18">
  <defs>
    <linearGradient id="b7ab03d5-2546-4a72-bec1-b1ae92a8581d" x1="9" y1="16.236" x2="9" y2="5.599" gradientUnits="userSpaceOnUse">
      <stop offset="0" stop-color="#005ba1" />
      <stop offset="0.775" stop-color="#0078d4" />
    </linearGradient>
  </defs>
  <g id="efccee9d-d10c-4a6b-ae91-b9221669ca1a">
    <path d="M0,5.6H18a0,0,0,0,1,0,0V15.635a.6.6,0,0,1-.6.6H.6a.6.6,0,0,1-.6-.6V5.6A0,0,0,0,1,0,5.6Z" fill="url(#b7ab03d5-2546-4a72-bec1-b1ae92a8581d)" />
    <path d="M.6,1.764H17.4a.6.6,0,0,1,.6.6V5.6a0,0,0,0,1,0,0H0a0,0,0,0,1,0,0V2.365A.6.6,0,0,1,.6,1.764Z" fill="#005ba1" />
    <path d="M3.166,3.847a.76.76,0,1,1-.76-.76A.76.76,0,0,1,3.166,3.847ZM4.8,3.087a.76.76,0,1,0,.76.76A.76.76,0,0,0,4.8,3.087Zm2.393,0a.76.76,0,1,0,.76.76A.76.76,0,0,0,7.191,3.087Z" fill="#fff" />
    <g>
      <path d="M6.72,9.907a1.451,1.451,0,1,0-.412,0v2.235h.059a1.448,1.448,0,1,0,.295,0H6.72Zm.867,3.666A1.073,1.073,0,1,1,6.514,12.5,1.072,1.072,0,0,1,7.587,13.573ZM5.442,8.48A1.073,1.073,0,1,1,6.514,9.552,1.072,1.072,0,0,1,5.442,8.48Z" fill="#fff" />
      <path d="M11.622,12.111V8.458a.206.206,0,0,0-.206-.206h-1.7v-1a.063.063,0,0,0-.108-.045L8.381,8.434a.1.1,0,0,0,0,.136L9.606,9.8a.063.063,0,0,0,.108-.045V8.664h1.5v3.461a1.468,1.468,0,1,0,.412-.014Zm-.136,2.506a1.072,1.072,0,1,1,1.072-1.072A1.072,1.072,0,0,1,11.486,14.617Z" fill="#fff" />
    </g>
  </g>
</svg>